<?xml version="1.0" encoding="utf-8"?>
<!-- Generator: Adobe Illustrator 25.0.0, SVG Export Plug-In . SVG Version: 6.00 Build 0)  -->
<svg version="1.1" id="Layer_1" xmlns="http://www.w3.org/2000/svg" xmlns:xlink="http://www.w3.org/1999/xlink" x="0px" y="0px"
	 viewBox="0 0 615.8 220.4" style="enable-background:new 0 0 615.8 220.4;" xml:space="preserve">
<style type="text/css">
	.st0{fill:#FFFFFF;}
	.st1{fill:#0043FF;}
	.st2{fill:url(#SVGID_1_);}
	.st3{fill:url(#SVGID_2_);}
	.st4{fill:#232A92;}
	.st5{fill:url(#SVGID_3_);}
	.st6{fill:url(#SVGID_4_);}
	.st7{fill:url(#SVGID_5_);}
	.st8{fill:url(#SVGID_6_);}
	.st9{fill:url(#SVGID_7_);}
	.st10{fill:url(#SVGID_8_);}
	.st11{fill:url(#SVGID_9_);}
	.st12{fill:url(#SVGID_10_);}
	.st13{fill:url(#SVGID_11_);}
	.st14{fill:url(#SVGID_12_);}
	.st15{fill:url(#SVGID_13_);}
	.st16{fill:url(#SVGID_14_);}
	.st17{fill:url(#SVGID_15_);}
	.st18{fill:url(#SVGID_16_);}
	.st19{fill:url(#SVGID_17_);}
	.st20{fill:url(#SVGID_18_);}
	.st21{fill:url(#SVGID_19_);}
	.st22{fill:#999999;}
	.st23{fill:url(#SVGID_20_);}
	.st24{fill:url(#SVGID_21_);}
	.st25{fill:url(#SVGID_22_);}
	.st26{fill:url(#SVGID_23_);}
	.st27{fill:url(#SVGID_24_);}
	.st28{fill:url(#SVGID_25_);}
	.st29{fill:url(#SVGID_26_);}
	.st30{fill:url(#SVGID_27_);}
	.st31{fill:url(#SVGID_28_);}
	.st32{fill:url(#SVGID_29_);}
	.st33{fill:url(#SVGID_30_);}
	.st34{fill:url(#SVGID_31_);}
	.st35{fill:url(#SVGID_32_);}
	.st36{fill:url(#SVGID_33_);}
	.st37{fill:url(#SVGID_34_);}
	.st38{fill:url(#SVGID_35_);}
	.st39{fill:url(#SVGID_36_);}
	.st40{fill:url(#SVGID_37_);}
	.st41{fill:url(#SVGID_38_);}
	.st42{fill:#8C8C8C;}
	.st43{fill:url(#SVGID_39_);}
	.st44{fill:url(#SVGID_40_);}
	.st45{fill:url(#SVGID_41_);}
	.st46{fill:url(#SVGID_42_);}
	.st47{fill:url(#SVGID_43_);}
	.st48{fill:url(#SVGID_44_);}
	.st49{fill:url(#SVGID_45_);}
	.st50{fill:url(#SVGID_46_);}
	.st51{fill:url(#SVGID_47_);}
	.st52{fill:url(#SVGID_48_);}
	.st53{fill:url(#SVGID_49_);}
	.st54{fill:url(#SVGID_50_);}
	.st55{fill:url(#SVGID_51_);}
	.st56{fill:url(#SVGID_52_);}
	.st57{fill:url(#SVGID_53_);}
</style>
<g>
	<g>
		<g>
			<g>
				
					<linearGradient id="SVGID_1_" gradientUnits="userSpaceOnUse" x1="107.8954" y1="8.7885" x2="107.8954" y2="-68.4512" gradientTransform="matrix(1 0 0 -1 0 83.6259)">
					<stop  offset="0" style="stop-color:#232A92"/>
					<stop  offset="0.5052" style="stop-color:#5200C6"/>
					<stop  offset="0.9531" style="stop-color:#5697F5"/>
				</linearGradient>
				<path class="st2" d="M74,151.1c-7.7-8.5-11.9-19.4-11.8-31c0.2-23.8,19.3-43.9,43.1-45.2c26.3-1.4,48.2,19.6,48.2,45.6
					c0,6.5-1.4,12.9-4,18.8c-0.7,1.5-2.5,2.2-4,1.4l-5-2.7c-1.3-0.7-1.9-2.3-1.3-3.6c1.9-4.3,2.9-9.1,2.9-13.9
					c0-19.4-16.2-35.1-35.8-34.2c-17.7,0.8-32.2,15.7-32.6,33.4c-0.2,8.8,2.9,17.1,8.7,23.5c1,1.1,0.9,2.8-0.1,3.9l-3.9,4.1
					C77.1,152.4,75.2,152.3,74,151.1z"/>
				
					<linearGradient id="SVGID_2_" gradientUnits="userSpaceOnUse" x1="106.7017" y1="-18.7924" x2="106.7017" y2="-100.9407" gradientTransform="matrix(1 0 0 -1 0 83.6259)">
					<stop  offset="0" style="stop-color:#232A92"/>
					<stop  offset="0.5052" style="stop-color:#5200C6"/>
					<stop  offset="0.9531" style="stop-color:#5697F5"/>
				</linearGradient>
				<path class="st3" d="M106,183.7l-25.6-25.6c-1.1-1.1-1.1-2.9,0-4l4-4c1.1-1.1,2.9-1.1,4,0l17.5,17.5c1.1,1.1,2.9,1.1,4,0
					c0,0,6-5.5,7.7-7.7c7.4-9.4,3.9-23.7-8.1-25c-0.5-0.1-1.1-0.1-1.6-0.1c-7.9-0.1-14.8-5.9-16.1-13.4c-0.9-5.4,0.9-10.8,4.8-14.5
					c4.8-4.5,11.9-5.8,18.2-2.9c4.5,2,7.7,6.3,8.8,11.1c0.1,0.7,0.4,2.1,0.4,3.5c0.1,1.8-1.4,3.3-3.1,3.4c-3.7,0.2-7.6-1.6-8.4-4.3
					c-0.5-1.7-1.8-3.2-3.5-3.6c-1.7-0.4-3.3,0.1-4.4,1.2c-1.2,1.1-1.7,2.7-1.4,4.3c0.4,2.2,2.5,3.9,4.9,3.9
					c14.9,0.1,25.7,10.4,25.7,25.3c0,6.2-1.2,11.2-4.3,15.5c-3.9,5.7-19.5,19.5-19.5,19.5C108.9,184.8,107.1,184.8,106,183.7z"/>
			</g>
			<g>
				<path d="M74,151.1c-7.7-8.5-11.9-19.4-11.8-31c0.2-23.8,19.3-43.9,43.1-45.2c26.3-1.4,48.2,19.6,48.2,45.6
					c0,6.5-1.4,12.9-4,18.8c-0.7,1.5-2.5,2.2-4,1.4l-5-2.7c-1.3-0.7-1.9-2.3-1.3-3.6c1.9-4.3,2.9-9.1,2.9-13.9
					c0-19.4-16.2-35.1-35.8-34.2c-17.7,0.8-32.2,15.7-32.6,33.4c-0.2,8.8,2.9,17.1,8.7,23.5c1,1.1,0.9,2.8-0.1,3.9l-3.9,4.1
					C77.1,152.4,75.2,152.3,74,151.1z"/>
				<path d="M106,183.7l-25.6-25.6c-1.1-1.1-1.1-2.9,0-4l4-4c1.1-1.1,2.9-1.1,4,0l17.5,17.5c1.1,1.1,2.9,1.1,4,0c0,0,6-5.5,7.7-7.7
					c7.4-9.4,3.9-23.7-8.1-25c-0.5-0.1-1.1-0.1-1.6-0.1c-7.9-0.1-14.8-5.9-16.1-13.4c-0.9-5.4,0.9-10.8,4.8-14.5
					c4.8-4.5,11.9-5.8,18.2-2.9c4.5,2,7.7,6.3,8.8,11.1c0.1,0.7,0.4,2.1,0.4,3.5c0.1,1.8-1.4,3.3-3.1,3.4c-3.7,0.2-7.6-1.6-8.4-4.3
					c-0.5-1.7-1.8-3.2-3.5-3.6c-1.7-0.4-3.3,0.1-4.4,1.2c-1.2,1.1-1.7,2.7-1.4,4.3c0.4,2.2,2.5,3.9,4.9,3.9
					c14.9,0.1,25.7,10.4,25.7,25.3c0,6.2-1.2,11.2-4.3,15.5c-3.9,5.7-19.5,19.5-19.5,19.5C108.9,184.8,107.1,184.8,106,183.7z"/>
			</g>
		</g>
		<g>
			<path d="M214,124.5c-0.3,0.4-0.6,0.8-0.9,1c-0.3,0.2-0.7,0.3-1.3,0.3c-0.6,0-1.2-0.2-1.8-0.6c-0.6-0.4-1.3-0.8-2.2-1.3
				c-0.8-0.5-1.9-0.9-3.1-1.3c-1.2-0.4-2.7-0.6-4.5-0.6c-2.3,0-4.4,0.4-6.1,1.2c-1.7,0.8-3.2,2-4.4,3.6c-1.2,1.5-2.1,3.4-2.6,5.6
				c-0.6,2.2-0.9,4.7-0.9,7.4c0,2.9,0.3,5.4,0.9,7.6c0.6,2.2,1.5,4.1,2.7,5.6c1.2,1.5,2.6,2.7,4.3,3.5c1.7,0.8,3.6,1.2,5.6,1.2
				c2.1,0,3.7-0.2,5-0.7c1.3-0.5,2.4-1,3.2-1.6c0.9-0.6,1.6-1.1,2.2-1.6c0.6-0.5,1.3-0.7,2-0.7c0.9,0,1.5,0.3,2,1l3,3.9
				c-1.2,1.5-2.6,2.8-4.1,3.8c-1.5,1-3.1,1.9-4.7,2.5c-1.7,0.6-3.4,1.1-5.2,1.4c-1.8,0.3-3.6,0.4-5.4,0.4c-3.2,0-6.1-0.6-8.8-1.8
				c-2.7-1.2-5.1-2.9-7.2-5.1s-3.6-5-4.8-8.2c-1.2-3.2-1.8-6.9-1.8-11.1c0-3.7,0.5-7.2,1.6-10.4c1.1-3.2,2.6-6,4.6-8.3
				c2-2.3,4.6-4.1,7.6-5.4c3-1.3,6.5-2,10.4-2c3.7,0,6.9,0.6,9.7,1.8c2.8,1.2,5.3,2.9,7.5,5.1L214,124.5z"/>
			<path d="M244.9,113.8c3.7,0,7.1,0.6,10.2,1.8c3,1.2,5.6,3,7.8,5.2c2.1,2.3,3.8,5,4.9,8.2c1.2,3.2,1.7,6.8,1.7,10.8
				c0,4-0.6,7.6-1.7,10.8c-1.2,3.2-2.8,6-4.9,8.2c-2.1,2.3-4.7,4-7.8,5.2c-3,1.2-6.4,1.8-10.2,1.8c-3.8,0-7.2-0.6-10.2-1.8
				c-3-1.2-5.6-3-7.8-5.2c-2.2-2.3-3.8-5-5-8.2c-1.2-3.2-1.7-6.8-1.7-10.8c0-4,0.6-7.6,1.7-10.8c1.2-3.2,2.8-5.9,5-8.2
				c2.2-2.3,4.7-4,7.8-5.2C237.7,114.4,241.1,113.8,244.9,113.8z M244.9,157.7c4.6,0,8-1.5,10.2-4.6c2.2-3.1,3.4-7.5,3.4-13.2
				c0-5.7-1.1-10.1-3.4-13.2c-2.2-3.1-5.6-4.6-10.2-4.6c-4.6,0-8.1,1.6-10.3,4.6c-2.3,3.1-3.4,7.5-3.4,13.2c0,5.7,1.1,10.1,3.4,13.2
				C236.8,156.1,240.3,157.7,244.9,157.7z"/>
			<path d="M320.5,114.6v50.7h-6.5c-1.4,0-2.3-0.7-2.7-2l-0.8-4.7c-1.1,1.1-2.2,2.2-3.4,3.1c-1.2,0.9-2.4,1.7-3.8,2.4
				c-1.3,0.7-2.7,1.2-4.3,1.5s-3.1,0.5-4.8,0.5c-2.8,0-5.2-0.5-7.4-1.4c-2.1-0.9-3.9-2.2-5.3-3.9c-1.4-1.7-2.5-3.7-3.3-6.1
				c-0.7-2.4-1.1-5-1.1-7.8v-32.3H288v32.3c0,3.4,0.8,6.1,2.4,8c1.6,1.9,4,2.8,7.2,2.8c2.4,0,4.5-0.5,6.6-1.6c2-1.1,4-2.6,5.7-4.4
				v-37H320.5z"/>
			<path d="M341.7,123.9c1.6-3.2,3.5-5.7,5.8-7.6c2.3-1.8,5-2.8,8.1-2.8c1.1,0,2.1,0.1,3.1,0.4c1,0.2,1.8,0.6,2.6,1.1l-0.7,8.1
				c-0.1,0.6-0.3,1-0.6,1.2c-0.3,0.2-0.7,0.3-1.1,0.3c-0.5,0-1.2-0.1-2.1-0.3c-0.9-0.2-1.9-0.3-2.9-0.3c-1.5,0-2.8,0.2-4,0.6
				c-1.1,0.4-2.2,1.1-3.1,1.9c-0.9,0.8-1.7,1.8-2.4,3c-0.7,1.2-1.3,2.6-1.9,4.1v31.5h-10.7v-50.7h6.2c1.1,0,1.9,0.2,2.3,0.6
				c0.4,0.4,0.7,1.1,0.9,2.2L341.7,123.9z"/>
			<path d="M390.5,166.1c-4.2,0-7.5-1.2-9.7-3.6c-2.3-2.4-3.4-5.7-3.4-10V123h-5.6c-0.6,0-1.1-0.2-1.5-0.6c-0.4-0.4-0.6-1-0.6-1.7
				v-4.3l8.2-1.2l2.3-14.7c0.2-0.6,0.4-1,0.8-1.4c0.4-0.3,0.9-0.5,1.6-0.5h5.5v16.7h14.1v7.7H388v28.8c0,1.8,0.4,3.2,1.3,4.2
				c0.9,1,2.1,1.4,3.6,1.4c0.8,0,1.5-0.1,2.1-0.3c0.6-0.2,1.1-0.4,1.5-0.7c0.4-0.2,0.8-0.5,1.1-0.7c0.3-0.2,0.6-0.3,0.9-0.3
				c0.6,0,1.1,0.3,1.4,1l3.2,5.2c-1.7,1.5-3.6,2.6-5.9,3.4C395.2,165.7,392.9,166.1,390.5,166.1z"/>
			<path d="M442.8,123.7c-0.3,0.5-0.6,0.8-0.9,1c-0.3,0.2-0.7,0.3-1.2,0.3c-0.6,0-1.2-0.2-1.8-0.5c-0.7-0.3-1.4-0.7-2.3-1.2
				c-0.9-0.4-1.9-0.8-3.2-1.2c-1.2-0.3-2.6-0.5-4.2-0.5c-1.3,0-2.5,0.2-3.6,0.5c-1.1,0.3-2,0.8-2.7,1.3c-0.7,0.6-1.3,1.3-1.7,2
				c-0.4,0.8-0.6,1.6-0.6,2.5c0,1.2,0.4,2.2,1.1,3c0.7,0.8,1.7,1.5,2.9,2.1c1.2,0.6,2.6,1.1,4.1,1.6c1.5,0.5,3.1,1,4.7,1.5
				c1.6,0.5,3.2,1.1,4.7,1.8c1.5,0.7,2.9,1.5,4.1,2.6c1.2,1,2.2,2.2,2.9,3.7c0.7,1.4,1.1,3.2,1.1,5.2c0,2.4-0.4,4.6-1.3,6.6
				c-0.9,2-2.1,3.8-3.8,5.3c-1.7,1.5-3.7,2.7-6.2,3.5c-2.5,0.8-5.3,1.2-8.5,1.2c-1.8,0-3.5-0.2-5.1-0.5c-1.6-0.3-3.2-0.7-4.7-1.3
				c-1.5-0.5-2.9-1.2-4.1-2c-1.3-0.8-2.4-1.6-3.4-2.5l2.5-4.1c0.3-0.5,0.7-0.9,1.1-1.2c0.4-0.3,1-0.4,1.7-0.4c0.7,0,1.4,0.2,2.1,0.7
				c0.7,0.4,1.5,0.9,2.4,1.5c0.9,0.5,2,1,3.3,1.5c1.3,0.4,2.9,0.7,4.8,0.7c1.6,0,3-0.2,4.1-0.6c1.2-0.4,2.1-0.9,2.9-1.6
				c0.8-0.7,1.3-1.4,1.7-2.3c0.4-0.8,0.5-1.7,0.5-2.7c0-1.3-0.4-2.4-1.1-3.2c-0.7-0.8-1.7-1.5-2.9-2.1c-1.2-0.6-2.6-1.1-4.1-1.6
				c-1.5-0.5-3.1-1-4.7-1.5c-1.6-0.5-3.2-1.1-4.7-1.8c-1.5-0.7-2.9-1.6-4.1-2.7s-2.2-2.4-2.9-3.9c-0.7-1.5-1.1-3.4-1.1-5.6
				c0-2,0.4-3.9,1.2-5.8c0.8-1.8,2-3.4,3.6-4.8c1.6-1.4,3.5-2.5,5.8-3.3c2.3-0.8,5-1.2,8-1.2c3.4,0,6.5,0.5,9.3,1.6
				c2.8,1.1,5.1,2.6,7,4.5L442.8,123.7z"/>
			<path d="M466.9,100.6c0,1-0.2,1.9-0.6,2.7c-0.4,0.9-0.9,1.6-1.6,2.3c-0.7,0.6-1.4,1.2-2.3,1.5c-0.9,0.4-1.8,0.6-2.8,0.6
				c-1,0-1.9-0.2-2.7-0.6c-0.8-0.4-1.6-0.9-2.2-1.5c-0.6-0.6-1.1-1.4-1.5-2.3c-0.4-0.9-0.6-1.8-0.6-2.7c0-1,0.2-1.9,0.6-2.8
				c0.4-0.9,0.9-1.6,1.5-2.3c0.6-0.6,1.4-1.2,2.2-1.5c0.8-0.4,1.7-0.6,2.7-0.6c1,0,1.9,0.2,2.8,0.6c0.9,0.4,1.6,0.9,2.3,1.5
				c0.7,0.6,1.2,1.4,1.6,2.3C466.7,98.7,466.9,99.6,466.9,100.6z M465.1,114.6v50.7h-10.7v-50.7H465.1z"/>
			<path d="M492.8,166.1c-4.2,0-7.5-1.2-9.7-3.6c-2.3-2.4-3.4-5.7-3.4-10V123h-5.6c-0.6,0-1.1-0.2-1.5-0.6c-0.4-0.4-0.6-1-0.6-1.7
				v-4.3l8.2-1.2l2.3-14.7c0.2-0.6,0.4-1,0.8-1.4c0.4-0.3,0.9-0.5,1.6-0.5h5.5v16.7h14.1v7.7h-14.1v28.8c0,1.8,0.4,3.2,1.3,4.2
				c0.9,1,2.1,1.4,3.6,1.4c0.8,0,1.5-0.1,2.1-0.3c0.6-0.2,1.1-0.4,1.5-0.7c0.4-0.2,0.8-0.5,1.1-0.7c0.3-0.2,0.6-0.3,0.9-0.3
				c0.6,0,1.1,0.3,1.4,1l3.2,5.2c-1.7,1.5-3.6,2.6-5.9,3.4C497.6,165.7,495.2,166.1,492.8,166.1z"/>
			<path d="M518.4,140.7c0.1,2.9,0.6,5.4,1.3,7.5c0.8,2.1,1.8,3.9,3.1,5.2c1.3,1.4,2.8,2.4,4.6,3.1c1.8,0.7,3.8,1,5.9,1
				c2.1,0,3.9-0.2,5.4-0.7c1.5-0.5,2.9-1,4-1.6c1.1-0.6,2.1-1.1,2.9-1.6c0.8-0.5,1.5-0.7,2.2-0.7c0.9,0,1.5,0.3,2,1l3,3.9
				c-1.3,1.5-2.7,2.8-4.3,3.8c-1.6,1-3.3,1.9-5.1,2.5c-1.8,0.6-3.6,1.1-5.5,1.4c-1.9,0.3-3.7,0.4-5.5,0.4c-3.5,0-6.8-0.6-9.8-1.8
				c-3-1.2-5.6-2.9-7.8-5.2c-2.2-2.3-3.9-5.1-5.2-8.5s-1.9-7.3-1.9-11.7c0-3.5,0.6-6.8,1.7-9.8c1.1-3,2.7-5.7,4.8-8
				c2.1-2.3,4.6-4,7.6-5.3c3-1.3,6.3-2,10.1-2c3.1,0,6,0.5,8.7,1.5c2.7,1,4.9,2.5,6.9,4.4c1.9,2,3.4,4.4,4.5,7.2
				c1.1,2.8,1.6,6.1,1.6,9.7c0,1.7-0.2,2.8-0.5,3.3c-0.4,0.6-1,0.8-2,0.8H518.4z M543.9,134.2c0-1.8-0.3-3.5-0.8-5
				c-0.5-1.5-1.3-2.9-2.3-4c-1-1.1-2.2-2-3.7-2.7c-1.5-0.6-3.2-1-5.1-1c-3.9,0-6.9,1.1-9.1,3.3c-2.2,2.2-3.6,5.3-4.2,9.3H543.9z"/>
		</g>
	</g>
	<g>
		<path d="M207.5,57.3h-5.1v11.2h-3.5V41.7h8.6c6.3,0,9.3,3.5,9.3,7.8C216.7,53.6,214.1,57.3,207.5,57.3z M207.5,54.4
			c4,0,5.7-1.9,5.7-4.9c0-3.1-1.7-5-5.7-5h-5.1v9.8H207.5z"/>
		<path d="M230.2,68.8c-6,0-10.5-4.2-10.5-10.9c0-6.6,4.7-10.8,10.6-10.8c6,0,10.6,4.2,10.6,10.8C241,64.6,236.2,68.8,230.2,68.8z
			 M230.2,65.7c3.6,0,7.2-2.5,7.2-7.8c0-5.3-3.5-7.8-7.1-7.8c-3.7,0-7,2.5-7,7.8C223.3,63.2,226.6,65.7,230.2,65.7z"/>
		<path d="M243.1,47.4h3.6l4.8,17.7l5.2-17.7h3.6l5.1,17.7l4.8-17.7h3.5l-6.6,21h-3.6l-5.1-16.7l-5.1,16.7h-3.6L243.1,47.4z"/>
		<path d="M286.2,68.8c-6,0-10.4-4.2-10.4-10.9c0-6.6,4.3-10.8,10.4-10.8c6.1,0,10.1,4.3,10.1,10.1c0,0.8,0,1.4-0.1,2.1h-16.8
			c0.3,4.3,3.3,6.6,6.8,6.6c3.1,0,5.1-1.6,5.9-3.9h3.8C294.8,65.8,291.4,68.8,286.2,68.8z M279.4,56.4h13.3c0-4.1-3-6.4-6.6-6.4
			C282.6,50,279.8,52.3,279.4,56.4z"/>
		<path d="M304.4,68.5h-3.5v-21h3.5v3.4c1.2-2.3,3.5-3.8,6.8-3.8v3.6h-0.9c-3.3,0-5.9,1.5-5.9,6.4V68.5z"/>
		<path d="M324.4,68.8c-6,0-10.4-4.2-10.4-10.9c0-6.6,4.3-10.8,10.4-10.8c6.1,0,10.1,4.3,10.1,10.1c0,0.8,0,1.4-0.1,2.1h-16.8
			c0.3,4.3,3.3,6.6,6.8,6.6c3.1,0,5.1-1.6,5.9-3.9h3.8C333,65.8,329.6,68.8,324.4,68.8z M317.6,56.4h13.3c0-4.1-3-6.4-6.6-6.4
			C320.8,50,317.9,52.3,317.6,56.4z"/>
		<path d="M347.8,47.1c3.3,0,6.3,1.7,7.8,4.1V40h3.5v28.4h-3.5v-4c-1.3,2.3-4,4.3-7.8,4.3c-5.6,0-10-4.4-10-10.9
			C337.8,51.3,342.1,47.1,347.8,47.1z M348.4,50.1c-3.8,0-7.1,2.8-7.1,7.8c0,5,3.3,7.9,7.1,7.9c3.8,0,7.1-2.9,7.1-7.8
			C355.6,53,352.3,50.1,348.4,50.1z"/>
		<path d="M386.6,47.1c5.7,0,10,4.2,10,10.8c0,6.5-4.3,10.9-10,10.9c-3.8,0-6.6-1.9-7.9-4.2v3.9h-3.5V40h3.5v11.3
			C380.1,49,382.9,47.1,386.6,47.1z M385.9,50.1c-3.8,0-7.1,2.9-7.1,7.8c0,5,3.3,7.8,7.1,7.8c3.9,0,7.1-2.9,7.1-7.9
			C393.1,52.9,389.8,50.1,385.9,50.1z"/>
		<path d="M415.8,47.4h3.6l-12.7,31h-3.6l4.1-10.1l-8.5-20.8h3.9l6.6,17.1L415.8,47.4z"/>
	</g>
</g>
</svg>
